<?xml version="1.0" encoding="UTF-8" standalone="no"?><!-- Generator: Gravit.io --><svg xmlns="http://www.w3.org/2000/svg" xmlns:xlink="http://www.w3.org/1999/xlink" style="isolation:isolate" viewBox="0 0 120 37" width="120pt" height="37pt"><defs><clipPath id="_clipPath_rW9zpsIhiecYrFFiUldhcDl6QCh4VPGv"><rect width="120" height="37"/></clipPath></defs><g clip-path="url(#_clipPath_rW9zpsIhiecYrFFiUldhcDl6QCh4VPGv)"><g><g><path d=" M 110.444 0 L 9.561 0 C 9.194 0 8.83 0 8.464 0.002 C 8.157 0.004 7.852 0.009 7.542 0.014 C 6.869 0.021 6.197 0.076 5.533 0.177 C 4.869 0.281 4.227 0.476 3.626 0.757 C 3.027 1.04 2.479 1.408 2.003 1.847 C 1.525 2.285 1.126 2.792 0.822 3.347 C 0.517 3.901 0.305 4.495 0.195 5.107 C 0.083 5.72 0.023 6.339 0.015 6.959 C 0.006 7.243 0.005 7.527 0 7.811 L 0 29.192 C 0.005 29.479 0.006 29.757 0.015 30.044 C 0.023 30.665 0.083 31.284 0.195 31.896 C 0.305 32.509 0.517 33.103 0.822 33.658 C 1.125 34.211 1.524 34.715 2.003 35.151 C 2.477 35.592 3.026 35.96 3.626 36.241 C 4.226 36.523 4.869 36.719 5.533 36.825 C 6.197 36.925 6.869 36.98 7.542 36.988 C 7.852 36.995 8.157 36.998 8.464 36.998 C 8.83 37 9.194 37 9.561 37 L 110.444 37 C 110.804 37 111.171 37 111.531 36.998 C 111.837 36.998 112.15 36.995 112.455 36.988 C 113.128 36.981 113.798 36.926 114.461 36.825 C 115.127 36.719 115.772 36.522 116.375 36.241 C 116.975 35.96 117.522 35.592 117.996 35.151 C 118.474 34.714 118.874 34.21 119.181 33.658 C 119.484 33.103 119.693 32.509 119.802 31.896 C 119.914 31.284 119.976 30.665 119.988 30.044 C 119.992 29.757 119.992 29.479 119.992 29.192 C 120 28.856 120 28.521 120 28.18 L 120 8.821 C 120 8.482 120 8.146 119.992 7.811 C 119.992 7.527 119.992 7.243 119.988 6.959 C 119.976 6.339 119.914 5.72 119.802 5.107 C 119.693 4.495 119.484 3.901 119.181 3.347 C 118.562 2.234 117.581 1.328 116.375 0.757 C 115.772 0.477 115.127 0.282 114.461 0.177 C 113.798 0.075 113.128 0.02 112.455 0.014 C 112.15 0.009 111.837 0.004 111.531 0.002 C 111.171 0 110.804 0 110.444 0 L 110.444 0 Z " fill="rgb(166,166,166)"/><path d=" M 8.469 36.191 C 8.163 36.191 7.865 36.187 7.562 36.181 C 6.934 36.173 6.307 36.123 5.687 36.03 C 5.109 35.938 4.549 35.767 4.026 35.523 C 3.507 35.281 3.034 34.963 2.625 34.583 C 2.21 34.206 1.864 33.77 1.602 33.291 C 1.336 32.809 1.153 32.292 1.057 31.758 C 0.954 31.185 0.898 30.605 0.89 30.024 C 0.884 29.829 0.875 29.179 0.875 29.179 L 0.875 7.811 C 0.875 7.811 0.884 7.172 0.89 6.984 C 0.898 6.403 0.953 5.825 1.056 5.252 C 1.152 4.717 1.336 4.198 1.601 3.715 C 1.863 3.236 2.206 2.799 2.619 2.421 C 3.031 2.04 3.506 1.721 4.025 1.476 C 4.548 1.232 5.107 1.063 5.683 0.973 C 6.305 0.879 6.934 0.828 7.564 0.821 L 8.469 0.809 L 111.526 0.809 L 112.442 0.821 C 113.066 0.828 113.689 0.878 114.305 0.972 C 114.888 1.063 115.453 1.234 115.981 1.478 C 117.022 1.973 117.869 2.756 118.403 3.717 C 118.664 4.197 118.845 4.712 118.939 5.242 C 119.044 5.819 119.102 6.403 119.114 6.988 C 119.117 7.25 119.117 7.531 119.117 7.811 C 119.125 8.158 119.125 8.488 119.125 8.821 L 119.125 28.18 C 119.125 28.516 119.125 28.844 119.117 29.175 C 119.117 29.475 119.117 29.751 119.113 30.034 C 119.101 30.609 119.044 31.182 118.941 31.749 C 118.848 32.286 118.665 32.807 118.4 33.294 C 118.136 33.768 117.792 34.2 117.381 34.575 C 116.972 34.958 116.498 35.278 115.978 35.521 C 115.451 35.767 114.887 35.939 114.305 36.03 C 113.686 36.123 113.059 36.174 112.431 36.181 C 112.137 36.187 111.83 36.191 111.531 36.191 L 110.444 36.192 L 8.469 36.191 Z " fill="rgb(0,0,0)"/></g><g><g><g><path d=" M 24.838 18.778 C 24.86 17.209 25.752 15.759 27.202 14.938 C 26.283 13.728 24.8 12.988 23.199 12.942 C 21.515 12.779 19.883 13.871 19.025 13.871 C 18.15 13.871 16.829 12.958 15.406 12.985 C 13.534 13.041 11.831 13.999 10.921 15.508 C 8.981 18.605 10.428 23.157 12.286 25.661 C 13.215 26.887 14.301 28.256 15.723 28.208 C 17.114 28.155 17.633 27.39 19.312 27.39 C 20.976 27.39 21.463 28.208 22.913 28.177 C 24.406 28.155 25.346 26.946 26.243 25.708 C 26.911 24.834 27.425 23.869 27.766 22.847 C 25.993 22.156 24.84 20.554 24.838 18.778 Z " fill="rgb(255,255,255)"/><path d=" M 22.099 11.295 C 22.913 10.394 23.314 9.236 23.217 8.066 C 21.973 8.187 20.825 8.735 20 9.601 C 19.186 10.456 18.773 11.575 18.853 12.711 C 20.113 12.723 21.31 12.201 22.099 11.295 Z " fill="rgb(255,255,255)"/></g></g><g><path d=" M 42.421 25.104 L 37.674 25.104 L 36.534 28.209 L 34.524 28.209 L 39.02 16.722 L 41.109 16.722 L 45.605 28.209 L 43.56 28.209 L 42.421 25.104 Z  M 38.166 23.672 L 41.928 23.672 L 40.074 18.633 L 40.022 18.633 L 38.166 23.672 Z " fill="rgb(255,255,255)"/><path d=" M 55.315 24.022 C 55.315 26.625 53.804 28.297 51.526 28.297 C 50.348 28.353 49.238 27.784 48.669 26.831 L 48.626 26.831 L 48.626 30.979 L 46.762 30.979 L 46.762 19.834 L 48.566 19.834 L 48.566 21.227 L 48.6 21.227 C 49.195 20.28 50.306 19.711 51.491 19.747 C 53.796 19.747 55.315 21.427 55.315 24.022 Z  M 53.399 24.022 C 53.399 22.327 52.449 21.212 51 21.212 C 49.576 21.212 48.618 22.35 48.618 24.022 C 48.618 25.709 49.576 26.839 51 26.839 C 52.449 26.839 53.399 25.733 53.399 24.022 Z " fill="rgb(255,255,255)"/><path d=" M 65.307 24.022 C 65.307 26.625 63.797 28.297 61.518 28.297 C 60.341 28.353 59.231 27.784 58.662 26.831 L 58.619 26.831 L 58.619 30.979 L 56.755 30.979 L 56.755 19.834 L 58.559 19.834 L 58.559 21.227 L 58.593 21.227 C 59.188 20.28 60.298 19.711 61.484 19.747 C 63.788 19.747 65.307 21.427 65.307 24.022 Z  M 63.392 24.022 C 63.392 22.327 62.442 21.212 60.993 21.212 C 59.569 21.212 58.611 22.35 58.611 24.022 C 58.611 25.709 59.569 26.839 60.993 26.839 C 62.442 26.839 63.392 25.733 63.392 24.022 L 63.392 24.022 Z " fill="rgb(255,255,255)"/><path d=" M 71.912 25.008 C 72.05 26.148 73.25 26.895 74.889 26.895 C 76.46 26.895 77.59 26.148 77.59 25.12 C 77.59 24.229 76.908 23.695 75.294 23.329 L 73.68 22.971 C 71.394 22.461 70.332 21.475 70.332 19.874 C 70.332 17.892 72.205 16.531 74.863 16.531 C 77.495 16.531 79.299 17.892 79.359 19.874 L 77.478 19.874 C 77.366 18.728 76.338 18.036 74.837 18.036 C 73.336 18.036 72.308 18.736 72.308 19.755 C 72.308 20.567 72.965 21.045 74.57 21.41 L 75.942 21.721 C 78.497 22.279 79.558 23.225 79.558 24.905 C 79.558 27.054 77.702 28.4 74.751 28.4 C 71.989 28.4 70.125 27.086 70.004 25.008 L 71.912 25.008 Z " fill="rgb(255,255,255)"/><path d=" M 83.58 17.852 L 83.58 19.834 L 85.307 19.834 L 85.307 21.196 L 83.58 21.196 L 83.58 25.812 C 83.58 26.53 83.926 26.864 84.685 26.864 C 84.89 26.861 85.094 26.847 85.298 26.824 L 85.298 28.177 C 84.957 28.236 84.61 28.263 84.263 28.257 C 82.425 28.257 81.708 27.62 81.708 25.996 L 81.708 21.196 L 80.388 21.196 L 80.388 19.834 L 81.708 19.834 L 81.708 17.852 L 83.58 17.852 Z " fill="rgb(255,255,255)"/><path d=" M 86.307 24.022 C 86.307 21.387 87.989 19.731 90.613 19.731 C 93.245 19.731 94.92 21.387 94.92 24.022 C 94.92 26.664 93.254 28.313 90.613 28.313 C 87.972 28.313 86.307 26.664 86.307 24.022 Z  M 93.021 24.022 C 93.021 22.215 92.123 21.148 90.613 21.148 C 89.103 21.148 88.205 22.223 88.205 24.022 C 88.205 25.837 89.103 26.895 90.613 26.895 C 92.123 26.895 93.021 25.837 93.021 24.022 L 93.021 24.022 Z " fill="rgb(255,255,255)"/><path d=" M 96.456 19.834 L 98.234 19.834 L 98.234 21.26 L 98.277 21.26 C 98.525 20.342 99.436 19.711 100.46 19.747 C 100.675 19.746 100.889 19.767 101.099 19.811 L 101.099 21.419 C 100.828 21.342 100.545 21.307 100.262 21.315 C 99.714 21.294 99.184 21.496 98.81 21.866 C 98.437 22.237 98.258 22.739 98.32 23.242 L 98.32 28.209 L 96.456 28.209 L 96.456 19.834 Z " fill="rgb(255,255,255)"/><path d=" M 109.691 25.749 C 109.441 27.269 107.836 28.313 105.782 28.313 C 103.141 28.313 101.501 26.68 101.501 24.062 C 101.501 21.435 103.15 19.731 105.704 19.731 C 108.216 19.731 109.795 21.323 109.795 23.862 L 109.795 24.451 L 103.383 24.451 L 103.383 24.555 C 103.323 25.178 103.556 25.796 104.024 26.249 C 104.491 26.703 105.147 26.95 105.825 26.927 C 106.729 27.005 107.582 26.526 107.922 25.749 L 109.691 25.749 Z  M 103.392 23.25 L 107.931 23.25 C 107.964 22.689 107.743 22.142 107.321 21.738 C 106.898 21.335 106.312 21.112 105.704 21.124 C 105.091 21.121 104.502 21.343 104.067 21.743 C 103.633 22.142 103.39 22.684 103.392 23.25 L 103.392 23.25 Z " fill="rgb(255,255,255)"/></g></g></g><g><g><path d=" M 37.826 8.731 C 38.615 8.674 39.388 8.975 39.932 9.549 C 40.476 10.123 40.733 10.911 40.634 11.696 C 40.634 13.602 39.604 14.698 37.826 14.698 L 35.671 14.698 L 35.671 8.731 L 37.826 8.731 Z  M 36.598 13.854 L 37.723 13.854 C 38.286 13.888 38.835 13.666 39.217 13.249 C 39.599 12.833 39.773 12.267 39.69 11.708 C 39.767 11.152 39.59 10.59 39.21 10.177 C 38.829 9.764 38.283 9.543 37.723 9.574 L 36.598 9.574 L 36.598 13.854 Z " fill="rgb(255,255,255)"/><path d=" M 41.681 12.444 C 41.603 11.637 41.99 10.856 42.679 10.429 C 43.368 10.001 44.24 10.001 44.929 10.429 C 45.618 10.856 46.005 11.637 45.928 12.444 C 46.006 13.252 45.62 14.035 44.93 14.463 C 44.241 14.892 43.368 14.892 42.678 14.463 C 41.989 14.035 41.602 13.252 41.681 12.444 Z  M 45.014 12.444 C 45.014 11.468 44.575 10.897 43.806 10.897 C 43.033 10.897 42.599 11.468 42.599 12.444 C 42.599 13.428 43.033 13.995 43.806 13.995 C 44.575 13.995 45.014 13.424 45.014 12.444 L 45.014 12.444 Z " fill="rgb(255,255,255)"/><path d=" M 51.573 14.698 L 50.651 14.698 L 49.721 11.381 L 49.65 11.381 L 48.724 14.698 L 47.811 14.698 L 46.569 10.195 L 47.471 10.195 L 48.277 13.631 L 48.344 13.631 L 49.27 10.195 L 50.122 10.195 L 51.048 13.631 L 51.118 13.631 L 51.921 10.195 L 52.81 10.195 L 51.573 14.698 Z " fill="rgb(255,255,255)"/><path d=" M 53.854 10.195 L 54.709 10.195 L 54.709 10.91 L 54.775 10.91 C 55.006 10.383 55.546 10.061 56.119 10.108 C 56.563 10.075 56.998 10.245 57.301 10.571 C 57.604 10.896 57.743 11.342 57.678 11.783 L 57.678 14.698 L 56.789 14.698 L 56.789 12.006 C 56.789 11.282 56.475 10.922 55.817 10.922 C 55.516 10.908 55.224 11.026 55.018 11.246 C 54.811 11.465 54.71 11.764 54.742 12.063 L 54.742 14.698 L 53.854 14.698 L 53.854 10.195 Z " fill="rgb(255,255,255)"/><path d=" M 59.094 8.437 L 59.982 8.437 L 59.982 14.698 L 59.094 14.698 L 59.094 8.437 Z " fill="rgb(255,255,255)"/><path d=" M 61.218 12.444 C 61.141 11.637 61.528 10.856 62.217 10.429 C 62.906 10.001 63.777 10.001 64.466 10.429 C 65.155 10.856 65.543 11.637 65.465 12.444 C 65.544 13.252 65.157 14.035 64.468 14.463 C 63.778 14.892 62.905 14.892 62.216 14.463 C 61.526 14.035 61.139 13.252 61.218 12.444 Z  M 64.551 12.444 C 64.551 11.468 64.112 10.897 63.343 10.897 C 62.57 10.897 62.136 11.468 62.136 12.444 C 62.136 13.428 62.57 13.995 63.343 13.995 C 64.112 13.995 64.551 13.424 64.551 12.444 L 64.551 12.444 Z " fill="rgb(255,255,255)"/><path d=" M 66.401 13.424 C 66.401 12.614 67.004 12.146 68.076 12.08 L 69.295 12.01 L 69.295 11.621 C 69.295 11.146 68.981 10.877 68.374 10.877 C 67.877 10.877 67.534 11.059 67.435 11.377 L 66.575 11.377 C 66.666 10.604 67.393 10.108 68.415 10.108 C 69.543 10.108 70.18 10.67 70.18 11.621 L 70.18 14.698 L 69.325 14.698 L 69.325 14.065 L 69.254 14.065 C 68.964 14.527 68.447 14.797 67.902 14.772 C 67.52 14.812 67.138 14.688 66.852 14.431 C 66.566 14.174 66.402 13.809 66.401 13.424 Z  M 69.295 13.04 L 69.295 12.663 L 68.196 12.733 C 67.576 12.775 67.294 12.986 67.294 13.383 C 67.294 13.788 67.646 14.024 68.129 14.024 C 68.416 14.053 68.701 13.964 68.921 13.779 C 69.141 13.593 69.276 13.327 69.295 13.04 Z " fill="rgb(255,255,255)"/><path d=" M 71.348 12.444 C 71.348 11.021 72.08 10.12 73.217 10.12 C 73.792 10.094 74.33 10.401 74.598 10.91 L 74.665 10.91 L 74.665 8.437 L 75.553 8.437 L 75.553 14.698 L 74.702 14.698 L 74.702 13.986 L 74.631 13.986 C 74.343 14.491 73.798 14.793 73.217 14.772 C 72.072 14.772 71.348 13.871 71.348 12.444 Z  M 72.266 12.444 C 72.266 13.399 72.716 13.974 73.469 13.974 C 74.218 13.974 74.681 13.391 74.681 12.448 C 74.681 11.51 74.213 10.918 73.469 10.918 C 72.721 10.918 72.266 11.497 72.266 12.444 L 72.266 12.444 Z " fill="rgb(255,255,255)"/><path d=" M 79.23 12.444 C 79.153 11.637 79.54 10.856 80.229 10.429 C 80.918 10.001 81.789 10.001 82.478 10.429 C 83.167 10.856 83.554 11.637 83.477 12.444 C 83.556 13.252 83.169 14.035 82.48 14.463 C 81.79 14.892 80.917 14.892 80.228 14.463 C 79.538 14.035 79.151 13.252 79.23 12.444 L 79.23 12.444 Z  M 82.563 12.444 C 82.563 11.468 82.125 10.897 81.355 10.897 C 80.583 10.897 80.148 11.468 80.148 12.444 C 80.148 13.428 80.583 13.995 81.355 13.995 C 82.125 13.995 82.563 13.424 82.563 12.444 Z " fill="rgb(255,255,255)"/><path d=" M 84.669 10.195 L 85.525 10.195 L 85.525 10.91 L 85.591 10.91 C 85.822 10.383 86.362 10.061 86.935 10.108 C 87.379 10.075 87.814 10.245 88.117 10.571 C 88.42 10.896 88.559 11.342 88.494 11.783 L 88.494 14.698 L 87.605 14.698 L 87.605 12.006 C 87.605 11.282 87.291 10.922 86.633 10.922 C 86.332 10.908 86.04 11.026 85.833 11.246 C 85.627 11.465 85.526 11.764 85.558 12.063 L 85.558 14.698 L 84.669 14.698 L 84.669 10.195 Z " fill="rgb(255,255,255)"/><path d=" M 93.515 9.074 L 93.515 10.215 L 94.491 10.215 L 94.491 10.964 L 93.515 10.964 L 93.515 13.279 C 93.515 13.751 93.709 13.958 94.152 13.958 C 94.265 13.957 94.378 13.95 94.491 13.937 L 94.491 14.677 C 94.331 14.706 94.169 14.721 94.007 14.723 C 93.019 14.723 92.626 14.375 92.626 13.507 L 92.626 10.964 L 91.911 10.964 L 91.911 10.215 L 92.626 10.215 L 92.626 9.074 L 93.515 9.074 Z " fill="rgb(255,255,255)"/><path d=" M 95.705 8.437 L 96.585 8.437 L 96.585 10.918 L 96.656 10.918 C 96.898 10.387 97.447 10.065 98.029 10.112 C 98.47 10.088 98.899 10.262 99.199 10.586 C 99.499 10.911 99.638 11.353 99.58 11.791 L 99.58 14.698 L 98.69 14.698 L 98.69 12.01 C 98.69 11.291 98.355 10.926 97.727 10.926 C 97.418 10.901 97.113 11.013 96.895 11.233 C 96.676 11.453 96.566 11.759 96.593 12.068 L 96.593 14.698 L 95.705 14.698 L 95.705 8.437 Z " fill="rgb(255,255,255)"/><path d=" M 104.761 13.482 C 104.512 14.331 103.69 14.88 102.81 14.785 C 102.21 14.801 101.633 14.552 101.232 14.104 C 100.831 13.656 100.648 13.055 100.73 12.46 C 100.65 11.864 100.833 11.262 101.231 10.81 C 101.63 10.359 102.204 10.103 102.806 10.108 C 104.059 10.108 104.815 10.964 104.815 12.378 L 104.815 12.688 L 101.635 12.688 L 101.635 12.738 C 101.607 13.072 101.721 13.402 101.95 13.648 C 102.178 13.894 102.499 14.032 102.834 14.028 C 103.269 14.08 103.692 13.864 103.906 13.482 L 104.761 13.482 Z  M 101.635 12.031 L 103.91 12.031 C 103.932 11.725 103.825 11.424 103.614 11.202 C 103.403 10.98 103.108 10.857 102.801 10.864 C 102.491 10.86 102.192 10.982 101.972 11.202 C 101.753 11.421 101.631 11.72 101.635 12.031 L 101.635 12.031 Z " fill="rgb(255,255,255)"/></g></g></g></svg>