<?xml version="1.0" encoding="UTF-8" standalone="no"?><!-- Generator: Gravit.io -->
<svg xmlns="http://www.w3.org/2000/svg" style="isolation:isolate"
     viewBox="0 0 64 64" width="64pt" height="64pt">
    <defs>
        <clipPath id="_clipPath_UEffHJAjFP6jMyXPNqoZ7tiILhLBGMQb">
            <rect width="64" height="64"/>
        </clipPath>
    </defs>
    <g clip-path="url(#_clipPath_UEffHJAjFP6jMyXPNqoZ7tiILhLBGMQb)">
        <path d=" M 16.417 51 Q 16.083 51.375 15.583 50.875 Q 15.042 50.417 15.417 50.083 Q 15.75 49.708 16.25 50.208 Q 16.75 50.667 16.417 51 Z  M 14.667 48.458 Q 15.042 48.958 14.667 49.25 Q 14.333 49.5 13.958 48.958 Q 13.583 48.417 13.958 48.208 Q 14.333 47.917 14.667 48.458 Z  M 12.125 45.958 Q 11.917 46.25 11.583 46.042 Q 11.167 45.833 11.292 45.542 Q 11.417 45.333 11.833 45.458 Q 12.25 45.667 12.125 45.958 Z  M 13.417 47.375 Q 13.167 47.667 12.75 47.25 Q 12.375 46.792 12.667 46.583 Q 12.917 46.333 13.333 46.708 Q 13.708 47.167 13.417 47.375 Z  M 18.792 52.042 Q 18.625 52.542 18 52.292 Q 17.292 52.125 17.458 51.667 Q 17.625 51.208 18.25 51.375 Q 18.917 51.583 18.792 52.042 Z  M 21.417 52.25 Q 21.417 52.708 20.75 52.708 Q 20.042 52.792 20.042 52.25 Q 20.042 51.792 20.708 51.792 Q 21.417 51.708 21.417 52.25 Z  M 23.833 51.833 Q 23.917 52.25 23.25 52.417 Q 22.583 52.583 22.5 52.083 Q 22.417 51.583 23.083 51.458 Q 23.75 51.375 23.833 51.833 Z  M 64 12 L 64 52 Q 64 56.958 60.479 60.479 Q 56.958 64 52 64 L 42.667 64 Q 42 64 41.646 63.958 Q 41.292 63.917 40.833 63.75 Q 40.375 63.583 40.167 63.146 Q 39.958 62.708 39.958 62 L 39.958 52.042 Q 39.958 48 37.792 46.125 Q 40.167 45.875 42.063 45.375 Q 43.958 44.875 45.979 43.75 Q 48 42.625 49.354 40.979 Q 50.708 39.333 51.563 36.604 Q 52.417 33.875 52.417 30.333 Q 52.417 25.292 49.125 21.75 Q 50.667 17.958 48.792 13.25 Q 47.625 12.875 45.417 13.708 Q 43.208 14.542 41.583 15.542 L 40 16.542 Q 36.125 15.458 32 15.458 Q 27.875 15.458 24 16.542 Q 23.333 16.083 22.229 15.417 Q 21.125 14.75 18.75 13.813 Q 16.375 12.875 15.167 13.25 Q 13.333 17.958 14.875 21.75 Q 11.583 25.292 11.583 30.333 Q 11.583 33.875 12.438 36.583 Q 13.292 39.292 14.625 40.958 Q 15.958 42.625 17.979 43.75 Q 20 44.875 21.896 45.375 Q 23.792 45.875 26.167 46.125 Q 24.5 47.625 24.125 50.417 Q 23.25 50.833 22.25 51.042 Q 21.25 51.25 19.875 51.25 Q 18.5 51.25 17.146 50.354 Q 15.792 49.458 14.833 47.75 Q 14.042 46.417 12.813 45.583 Q 11.583 44.75 10.75 44.583 L 9.917 44.458 Q 9.042 44.458 8.708 44.646 Q 8.375 44.833 8.5 45.125 Q 8.625 45.417 8.875 45.708 Q 9.125 46 9.417 46.208 L 9.708 46.417 Q 10.625 46.833 11.521 48 Q 12.417 49.167 12.833 50.125 L 13.25 51.083 Q 13.792 52.667 15.083 53.646 Q 16.375 54.625 17.875 54.896 Q 19.375 55.167 20.771 55.188 Q 22.167 55.208 23.083 55.042 L 24.042 54.875 Q 24.042 56.458 24.063 59.167 Q 24.083 61.875 24.083 62 Q 24.083 62.917 23.625 63.396 Q 23.167 63.875 22.708 63.938 Q 22.25 64 21.333 64 L 12 64 Q 7.042 64 3.521 60.479 Q 0 56.958 0 52 L 0 12 Q 0 7.042 3.521 3.521 Q 7.042 0 12 0 L 52 0 Q 56.958 0 60.479 3.521 Q 64 7.042 64 12 Z "
              fill="rgb(0,0,0)"/>
    </g>
</svg>