<?xml version="1.0" encoding="UTF-8" standalone="no"?><!-- Generator: Gravit.io -->
<svg xmlns="http://www.w3.org/2000/svg" style="isolation:isolate"
     viewBox="0 0 512 512" width="512pt" height="512pt">
    <defs>
        <clipPath id="_clipPath_NHhiQc1OjhWrDp8QxSkZlpyQNisSMdWB">
            <rect width="512" height="512"/>
        </clipPath>
    </defs>
    <g clip-path="url(#_clipPath_NHhiQc1OjhWrDp8QxSkZlpyQNisSMdWB)">
        <path d=" M 500.738 69.58 C 496.478 59.144 490.11 51.255 483.987 47.179 C 477.863 43.102 472.227 42.747 468.144 45.982 C 459.447 53.471 465.526 64.018 469.498 77.689 C 471.539 84.558 473.181 92.447 473.181 100.379 C 472.848 109.109 472.205 118.925 471.539 126.813 C 460.867 227.163 429.049 325.278 383.055 415.304 C 380.148 420.909 377.153 426.471 374.136 431.988 L 369.543 440.209 C 367.945 442.934 366.414 445.704 365.061 447.698 C 359.204 456.317 350.639 463.629 341.098 468.127 C 321.795 477.433 297.987 474.885 281.792 460.971 C 277.754 457.625 274.182 453.703 271.275 449.338 C 268.258 445.017 266.327 440.386 263.598 434.071 L 248.044 398.841 L 240.256 381.203 C 237.527 375.021 234.51 368.839 231.159 362.945 C 224.503 351.024 216.671 339.746 207.818 329.354 C 206.841 328.224 205.821 327.138 204.867 326.008 C 205.71 324.878 206.464 323.571 207.374 322.773 C 249.575 285.282 283.612 239.503 334.374 210.676 C 340.276 207.33 348.574 202.101 328.361 182.203 C 311.765 165.873 307.238 174.094 302.868 178.282 C 283.054 197.448 265.836 219.184 246.289 238.681 C 246.112 238.504 245.956 238.348 246.289 238.681 C 225.899 259.043 205.441 279.362 185.16 299.834 C 184.029 300.965 182.254 301.873 181.011 303.069 C 169.54 293.652 157.159 285.432 143.98 278.674 C 131.422 272.381 120.062 267.772 108.258 262.388 L 73.046 246.678 C 53.964 238.347 40.718 217.984 40.895 197.488 C 40.829 177.059 53.453 156.762 72.358 147.124 C 160.467 98.975 258.823 66.735 357.781 56.298 C 369.363 55.279 382.143 53.861 394.923 53.063 C 401.113 52.62 407.992 51.822 413.317 51.202 C 417.511 50.759 421.726 50.759 425.809 50.98 C 433.996 51.423 441.54 53.019 448.352 53.307 C 455.119 53.595 461.42 52.864 466.235 47.568 C 470.095 43.38 469.874 36.622 464.593 29.199 C 459.49 21.776 449.195 13.888 435.35 9.523 C 428.472 7.307 420.706 6 412.629 6 L 409.612 6 L 407.216 6.111 L 402.445 6.332 C 399.272 6.554 396.077 6.776 392.838 6.953 C 386.426 7.462 379.991 7.861 373.801 8.592 C 367.611 9.39 361.598 10.232 355.962 10.986 C 304.442 17.677 254.011 30.329 205.219 47.125 C 156.361 63.92 109.237 84.793 63.905 110.099 L 55.385 114.974 L 51.124 117.478 C 49.483 118.497 47.663 119.627 45.955 120.824 C 42.538 123.217 39.298 125.765 36.303 128.601 C 34.706 130.13 33.463 131.326 32.043 132.789 C 30.623 134.273 29.27 135.736 27.961 137.331 C 17.443 149.695 10.233 164.851 7.348 181.07 C 1.269 214.262 16.201 248.741 43.026 267.795 C 46.31 270.232 49.837 272.337 53.476 274.309 C 55.295 275.284 57.159 276.126 59.045 276.968 L 63.483 278.895 L 80.811 286.385 L 115.402 301.407 C 137.146 310.359 155.739 322.568 172.025 338.499 C 188.999 355.118 202.178 374.461 211.608 396.93 L 227.517 433.003 L 235.46 451.04 C 236.592 453.654 238.633 458.307 240.696 461.764 C 242.804 465.442 245.178 469.031 247.796 472.377 C 258.358 485.871 272.669 496.086 289.088 501.581 C 305.396 507.032 323.279 507.364 339.587 502.999 C 355.895 498.745 371.049 489.549 382.409 477.584 C 385.36 474.526 388.089 471.225 390.597 467.768 C 391.839 466.017 393.037 464.245 394.124 462.428 L 396.854 457.841 C 400.315 451.881 403.621 445.987 406.794 440.027 C 457.226 344.901 491.307 241.318 502.775 133.651 C 503.507 124.744 504.706 114.884 505.682 104.891 C 506.813 92.859 504.883 79.587 500.579 69.328 L 500.738 69.58 Z "
              fill="rgb(37,121,232)"/>
    </g>
</svg>